<svg width="512" height="512" viewBox="0 0 512 512" fill="none" xmlns="http://www.w3.org/2000/svg">
<path d="M455.562 200.922C452.097 195.712 447.396 191.44 441.88 188.487C436.363 185.535 430.201 183.993 423.944 184H368V136C368 133.878 367.157 131.843 365.657 130.343C364.157 128.843 362.122 128 360 128H24C21.8783 128 19.8434 128.843 18.3431 130.343C16.8429 131.843 16 133.878 16 136V335.82C16 335.97 16.014 336.12 16.022 336.264C16.0695 337.902 16.6205 339.486 17.6 340.8L41.6 372.8C42.3452 373.794 43.3114 374.6 44.4223 375.155C45.5331 375.711 46.758 376 48 376H99.35C102.461 383.133 107.586 389.203 114.096 393.466C120.606 397.729 128.218 400 136 400C143.782 400 151.394 397.729 157.904 393.466C164.414 389.203 169.539 383.133 172.65 376H387.35C390.461 383.133 395.586 389.203 402.096 393.466C408.606 397.729 416.218 400 424 400C431.782 400 439.394 397.729 445.904 393.466C452.414 389.203 457.539 383.133 460.65 376H488C490.122 376 492.157 375.157 493.657 373.657C495.157 372.157 496 370.122 496 368V291.25C496.019 271.9 490.291 252.98 479.541 236.89L455.562 200.922ZM442.25 209.8L466.228 245.768C468.406 249.036 470.348 252.455 472.038 256H428.707L397.6 200H423.948C427.57 199.997 431.137 200.89 434.33 202.6C437.524 204.31 440.244 206.784 442.25 209.8V209.8ZM379.293 200L417.007 267.885C417.7 269.132 418.714 270.171 419.943 270.895C421.173 271.618 422.573 272 424 272H477.706C479.228 278.304 479.998 284.765 480 291.25V328H447.974C441.06 322.807 432.648 319.999 424.001 319.999C415.354 319.999 406.942 322.807 400.028 328H368V200H379.293ZM352 144V328H159.972C153.058 322.807 144.646 319.999 135.999 319.999C127.352 319.999 118.94 322.807 112.026 328H32V144H352ZM52 360L40 344H99.35C97.1371 349.044 95.9964 354.492 96 360H52ZM136 384C131.253 384 126.613 382.592 122.666 379.955C118.72 377.318 115.643 373.57 113.827 369.184C112.01 364.799 111.535 359.973 112.461 355.318C113.387 350.662 115.673 346.386 119.029 343.029C122.386 339.673 126.662 337.387 131.318 336.461C135.973 335.535 140.799 336.01 145.184 337.827C149.57 339.643 153.318 342.72 155.955 346.666C158.592 350.613 160 355.253 160 360C159.993 366.363 157.462 372.463 152.962 376.962C148.463 381.462 142.363 383.993 136 384ZM176 360C176.004 354.492 174.863 349.044 172.65 344H387.35C385.137 349.044 383.996 354.492 384 360H176ZM424 384C419.253 384 414.613 382.592 410.666 379.955C406.72 377.318 403.643 373.57 401.827 369.184C400.01 364.799 399.535 359.973 400.461 355.318C401.387 350.662 403.673 346.386 407.029 343.029C410.386 339.673 414.662 337.387 419.318 336.461C423.973 335.535 428.799 336.01 433.184 337.827C437.57 339.643 441.318 342.72 443.955 346.666C446.592 350.613 448 355.253 448 360C447.993 366.363 445.462 372.463 440.962 376.962C436.463 381.462 430.363 383.993 424 384V384ZM464 360C464.004 354.492 462.863 349.044 460.65 344H480V360H464Z" fill="black" id="id_101"></path>
<path d="M112 216H136C138.122 216 140.157 215.157 141.657 213.657C143.157 212.157 144 210.122 144 208C144 205.878 143.157 203.843 141.657 202.343C140.157 200.843 138.122 200 136 200H112C109.878 200 107.843 200.843 106.343 202.343C104.843 203.843 104 205.878 104 208C104 210.122 104.843 212.157 106.343 213.657C107.843 215.157 109.878 216 112 216V216Z" fill="black" id="id_102"></path>
<path d="M80 248H136C138.122 248 140.157 247.157 141.657 245.657C143.157 244.157 144 242.122 144 240C144 237.878 143.157 235.843 141.657 234.343C140.157 232.843 138.122 232 136 232H80C77.8783 232 75.8434 232.843 74.3431 234.343C72.8429 235.843 72 237.878 72 240C72 242.122 72.8429 244.157 74.3431 245.657C75.8434 247.157 77.8783 248 80 248V248Z" fill="black" id="id_103"></path>
<path d="M136 264H96C93.8783 264 91.8434 264.843 90.3431 266.343C88.8429 267.843 88 269.878 88 272C88 274.122 88.8429 276.157 90.3431 277.657C91.8434 279.157 93.8783 280 96 280H136C138.122 280 140.157 279.157 141.657 277.657C143.157 276.157 144 274.122 144 272C144 269.878 143.157 267.843 141.657 266.343C140.157 264.843 138.122 264 136 264Z" fill="black" id="id_104"></path>
<path d="M400 304H424C426.122 304 428.157 303.157 429.657 301.657C431.157 300.157 432 298.122 432 296C432 293.878 431.157 291.843 429.657 290.343C428.157 288.843 426.122 288 424 288H400C397.878 288 395.843 288.843 394.343 290.343C392.843 291.843 392 293.878 392 296C392 298.122 392.843 300.157 394.343 301.657C395.843 303.157 397.878 304 400 304Z" fill="black" id="id_105"></path>
<path d="M308.359 185.292C307.919 185.006 242.809 160.51 242.809 160.51C240.845 159.771 238.668 159.836 236.751 160.689C236.751 160.689 163.807 193.173 163.443 193.425C162.381 194.161 161.513 195.144 160.913 196.289C160.313 197.434 160 198.707 160 200V280C160 281.628 160.497 283.218 161.425 284.556C162.352 285.895 163.666 286.918 165.191 287.49L229.191 311.49C231.112 312.218 233.241 312.165 235.124 311.343C235.167 311.337 235.209 311.326 235.249 311.311L307.249 279.311C308.663 278.683 309.865 277.657 310.708 276.36C311.551 275.062 312 273.548 312 272V192C312 190.667 311.667 189.355 311.031 188.184C310.395 187.012 309.477 186.018 308.359 185.292V185.292ZM240.259 176.641L282.892 192.628L270.173 198.28L256.437 191.771C255.486 191.311 254.454 191.044 253.4 190.985C252.346 190.926 251.29 191.077 250.294 191.428C249.298 191.778 248.382 192.323 247.597 193.03C246.813 193.737 246.176 194.592 245.724 195.547C245.272 196.501 245.013 197.535 244.962 198.59C244.912 199.645 245.071 200.699 245.43 201.692C245.789 202.685 246.34 203.597 247.054 204.376C247.767 205.155 248.627 205.784 249.585 206.229L250.893 206.849L231.745 215.36L189.11 199.373L240.259 176.641ZM224 292.456L176 274.456V211.544L224 229.544V292.456ZM296 266.8L240 291.688V229.2L264 218.534V232C264 234.122 264.843 236.157 266.343 237.657C267.843 239.157 269.878 240 272 240C274.122 240 276.157 239.157 277.657 237.657C279.157 236.157 280 234.122 280 232V211.422L296 204.311V266.8Z" fill="black" id="id_106"></path>
<path d="M189.191 247.49L210.524 255.49C211.51 255.871 212.562 256.053 213.619 256.026C214.676 255.998 215.718 255.761 216.682 255.328C217.647 254.896 218.517 254.276 219.241 253.505C219.965 252.735 220.529 251.828 220.9 250.838C221.271 249.848 221.443 248.794 221.404 247.737C221.366 246.681 221.118 245.642 220.676 244.682C220.234 243.721 219.605 242.858 218.827 242.142C218.049 241.426 217.137 240.871 216.143 240.51L194.809 232.51C193.822 232.126 192.769 231.942 191.711 231.968C190.652 231.995 189.61 232.231 188.643 232.663C187.677 233.095 186.806 233.715 186.08 234.486C185.355 235.258 184.79 236.165 184.419 237.157C184.047 238.148 183.876 239.203 183.915 240.261C183.954 241.319 184.202 242.359 184.646 243.32C185.09 244.281 185.721 245.145 186.501 245.861C187.281 246.576 188.195 247.13 189.191 247.49V247.49Z" fill="black" id="id_107"></path>
</svg>